<svg xmlns="http://www.w3.org/2000/svg"
 xmlns:xlink="http://www.w3.org/1999/xlink"
 width="11px" height="20px"  viewBox="0 0 11 20">
<path fill-rule="evenodd"  fill="#95e1d3"
 d="M8.993286,2.0146484 C8.993286,2.9375 8.993286,4.5898438 8.993286,4.5898438 C8.993286,4.5898438 7.094818,4.401367 6.6193237,5.1289062 C6.359436,5.526367 6.5137024,6.6904297 6.490692,7.5273438 C7.319458,7.5273438 8.180298,7.5273438 9.008972,7.5273438 C8.79599,8.504883 8.643555,9.166992 8.4869995,10.013672 C7.769806,10.013672 6.4766235,10.013672 6.4766235,10.013672 C6.4766235,10.013672 6.4766235,18.016602 6.4766235,18.016602 C6.4766235,18.016602 4.1035767,18.016602 2.9880066,18.016602 C2.988678,15.548828 2.9874268,12.670898 2.9880066,10.044922 C2.446106,10.044922 2.0453491,10.044922 1.5036011,10.044922 C1.5036011,9.12207 1.5036011,8.450195 1.5036011,7.5273438 C2.0293274,7.5273438 2.4455566,7.5273438 2.9716187,7.5273438 C3.046936,5.685547 3.0751953,3.8623047 3.989685,2.9335938 C5.0176086,1.8886719 5.997925,2.0146484 8.993286,2.0146484 Z"/>
</svg>