<svg xmlns="http://www.w3.org/2000/svg"
 xmlns:xlink="http://www.w3.org/1999/xlink"
 width="19px" height="16px"  viewBox="0 0 19 16">
<path fill-rule="evenodd"  fill="#95e1d3"
 d="M12.882874,1.515625 C14.154297,1.4931641 14.830994,1.9570312 15.477478,2.5458984 C16.026093,2.4980469 16.739197,2.1923828 17.15918,1.9785156 C17.295258,1.9042969 17.431427,1.8300781 17.567505,1.7548828 C17.327637,2.4033203 17.00238,2.9111328 16.50241,3.2958984 C16.39151,3.381836 16.281311,3.4970703 16.14215,3.5517578 C16.14215,3.5546875 16.14215,3.5566406 16.14215,3.5595703 C16.854431,3.5517578 17.441956,3.2304688 17.99997,3.0566406 C17.99997,3.0595703 17.99997,3.0615234 17.99997,3.0644531 C17.70691,3.53125 17.31012,4.0039062 16.88681,4.341797 C16.716064,4.477539 16.545105,4.6132812 16.374329,4.7490234 C16.383728,5.5039062 16.36325,6.2226562 16.22226,6.8564453 C15.402405,10.541992 13.230316,13.042969 9.791809,14.114258 C8.557007,14.499023 6.5617065,14.658203 5.1471252,14.305664 C4.445587,14.131836 3.8118286,13.935547 3.2171936,13.675781 C2.8869019,13.530273 2.580902,13.375 2.288269,13.196289 C2.1921387,13.137695 2.0960083,13.079102 2.0,13.020508 C2.3190613,13.030273 2.6923523,13.118164 3.0490723,13.060547 C3.3717957,13.008789 3.6882324,13.022461 3.9859009,12.957031 C4.728485,12.793945 5.387787,12.579102 5.9558716,12.246094 C6.231201,12.084961 6.64917,11.896484 6.8448486,11.6640625 C6.476013,11.669922 6.1417236,11.584961 5.867859,11.488281 C4.805969,11.113281 4.187866,10.423828 3.785736,9.387695 C4.107544,9.422852 5.0343933,9.506836 5.251251,9.324219 C4.8461304,9.301758 4.4565735,9.067383 4.1781616,8.892578 C3.3239746,8.358398 2.6273499,7.461914 2.6326294,6.0820312 C2.7446594,6.135742 2.8568115,6.189453 2.9689636,6.2421875 C3.1834106,6.333008 3.4016724,6.3808594 3.6576538,6.4345703 C3.765686,6.4560547 3.9818726,6.5195312 4.1060486,6.473633 C4.100769,6.473633 4.095398,6.473633 4.090027,6.473633 C3.9247742,6.28125 3.655487,6.1533203 3.489441,5.9472656 C2.9413757,5.265625 2.427887,4.2177734 2.752777,2.96875 C2.8351746,2.6523438 2.9658813,2.3730469 3.1050415,2.1142578 C3.1104126,2.1171875 3.1157837,2.1201172 3.1210632,2.1230469 C3.1848145,2.2558594 3.3271484,2.3544922 3.4173584,2.4658203 C3.6972656,2.8125 4.0425415,3.125 4.3943176,3.399414 C5.5930786,4.336914 6.6726074,4.9140625 8.406403,5.3408203 C8.846191,5.448242 9.354553,5.5302734 9.879822,5.53125 C9.7323,5.1015625 9.779694,4.40625 9.8958435,3.991211 C10.188019,2.9453125 10.822693,2.1904297 11.753784,1.7871094 C11.976379,1.6904297 12.223236,1.6201172 12.482422,1.5634766 C12.615875,1.5478516 12.74942,1.53125 12.882874,1.515625 Z"/>
</svg>