<svg xmlns="http://www.w3.org/2000/svg"
 xmlns:xlink="http://www.w3.org/1999/xlink"
 width="19px" height="19px"  viewBox="0 0 19 19">
<path fill-rule="evenodd"  fill="#95e1d3"
 d="M15.999878,17.014648 C15.999878,17.014648 3.9999695,17.014648 3.9999695,17.014648 C2.8953857,17.014648 2.0,16.120117 2.0,15.015625 C2.0,15.015625 2.0,3.0146484 2.0,3.0146484 C2.0,1.9101562 2.8953857,1.0146484 3.9999695,1.0146484 C3.9999695,1.0146484 15.999878,1.0146484 15.999878,1.0146484 C17.104614,1.0146484 18.0,1.9101562 18.0,3.0146484 C18.0,3.0146484 18.0,15.015625 18.0,15.015625 C18.0,16.120117 17.104614,17.014648 15.999878,17.014648 ZM10.0,5.915039 C8.752686,5.915039 7.680481,6.6533203 7.188507,7.7148438 C7.188507,7.7148438 7.1857605,7.7148438 7.1857605,7.7148438 C7.180603,7.7265625 7.177063,7.7382812 7.1720276,7.7490234 C7.142639,7.814453 7.116638,7.8828125 7.0917053,7.9501953 C7.0798035,7.982422 7.066986,8.013672 7.0560913,8.047852 C7.033203,8.1171875 7.0144653,8.188477 6.996582,8.259766 C6.9881287,8.292969 6.97818,8.326172 6.9707336,8.359375 C6.954468,8.435547 6.9431458,8.512695 6.932495,8.589844 C6.9281616,8.621094 6.921631,8.651367 6.918213,8.683594 C6.9066467,8.792969 6.9000244,8.902344 6.9000244,9.014648 C6.9000244,10.727539 8.287842,12.115234 10.0,12.115234 C11.712036,12.115234 13.099976,10.727539 13.099976,9.014648 C13.099976,8.902344 13.093323,8.792969 13.081665,8.683594 C13.078308,8.651367 13.071777,8.621094 13.067444,8.589844 C13.056702,8.512695 13.045349,8.435547 13.029114,8.359375 C13.02179,8.326172 13.011841,8.292969 13.003357,8.259766 C12.985413,8.188477 12.966614,8.1171875 12.943848,8.047852 C12.932983,8.013672 12.920166,7.982422 12.908264,7.9501953 C12.883301,7.8828125 12.857239,7.814453 12.82782,7.7490234 C12.822876,7.7382812 12.819336,7.7265625 12.814209,7.7148438 C12.814209,7.7148438 12.81134,7.7148438 12.81134,7.7148438 C12.319458,6.6533203 11.247192,5.915039 10.0,5.915039 ZM16.199951,3.6152344 C16.199951,3.1728516 15.841858,2.8154297 15.400024,2.8154297 C15.400024,2.8154297 13.799988,2.8154297 13.799988,2.8154297 C13.358154,2.8154297 12.999939,3.1728516 12.999939,3.6152344 C12.999939,3.6152344 12.999939,5.2148438 12.999939,5.2148438 C12.999939,5.65625 13.358154,6.0146484 13.799988,6.0146484 C13.799988,6.0146484 15.400024,6.0146484 15.400024,6.0146484 C15.841858,6.0146484 16.199951,5.65625 16.199951,5.2148438 C16.199951,5.2148438 16.199951,3.6152344 16.199951,3.6152344 ZM16.199951,7.7148438 C16.199951,7.7148438 14.72522,7.7148438 14.72522,7.7148438 C14.838867,8.128906 14.900024,8.564453 14.900024,9.014648 C14.900024,11.720703 12.706177,13.915039 10.0,13.915039 C7.2937927,13.915039 5.0999756,11.720703 5.0999756,9.014648 C5.0999756,8.564453 5.1609497,8.128906 5.274719,7.7148438 C5.274719,7.7148438 3.7999268,7.7148438 3.7999268,7.7148438 C3.7999268,7.7148438 3.7999268,14.415039 3.7999268,14.415039 C3.7999268,14.856445 4.1581116,15.214844 4.5999756,15.214844 C4.5999756,15.214844 15.400024,15.214844 15.400024,15.214844 C15.841858,15.214844 16.199951,14.856445 16.199951,14.415039 C16.199951,14.415039 16.199951,7.7148438 16.199951,7.7148438 Z"/>
</svg>