<svg xmlns="http://www.w3.org/2000/svg"
 xmlns:xlink="http://www.w3.org/1999/xlink"
 width="15px" height="20px"  viewBox="0 0 15 20">
<path fill-rule="evenodd"  fill="#95e1d3"
 d="M6.8442383,12.423828 C6.71344,12.9453125 6.58197,13.490234 6.4455566,14.024414 C6.310974,14.549805 6.192749,15.083984 5.9970703,15.567383 C5.6726074,16.368164 5.260498,17.142578 4.7197876,17.768555 C4.3606567,18.185547 4.4370728,18.018555 4.3288574,17.996094 C4.246338,17.979492 4.2391357,17.898438 4.2229614,17.78125 C4.1349487,17.144531 4.1949463,16.40918 4.227661,15.694336 C4.2648926,14.878906 4.4362793,14.201172 4.595276,13.524414 C4.8980713,12.234375 5.1867676,10.970703 5.4923706,9.672852 C5.5126953,9.5859375 5.567444,9.443359 5.548523,9.394531 C5.410095,9.03418 5.3201294,8.709961 5.2806396,8.332031 C5.2351074,7.8964844 5.2700195,7.4902344 5.367737,7.1171875 C5.540283,6.4560547 5.9382324,5.8691406 6.5515137,5.65625 C6.941162,5.520508 7.373291,5.5810547 7.635498,5.7382812 C7.9057007,5.899414 8.090942,6.1552734 8.17749,6.515625 C8.269714,6.901367 8.201721,7.3603516 8.127563,7.698242 C7.9606323,8.459961 7.741455,9.032227 7.541992,9.766602 C7.443115,10.131836 7.331421,10.505859 7.423645,10.899414 C7.508545,11.260742 7.696594,11.509766 7.953308,11.696289 C8.219116,11.889648 8.534058,11.996094 8.96875,11.981445 C9.735962,11.954102 10.269348,11.463867 10.625977,11.000977 C11.195984,10.260742 11.541504,9.260742 11.672485,8.071289 C11.7146,7.689453 11.745605,7.248047 11.716003,6.8125 C11.661499,6.010742 11.410461,5.3652344 11.012085,4.8652344 C10.633057,4.388672 10.095642,4.008789 9.442139,3.7958984 C8.793945,3.5839844 7.8967285,3.5146484 7.0996704,3.6503906 C5.6515503,3.8984375 4.629944,4.7216797 4.0283203,5.8583984 C3.7131348,6.453125 3.505005,7.1376953 3.505005,7.989258 C3.505005,8.646484 3.6671143,9.155273 3.928772,9.551758 C4.0117188,9.677734 4.13385,9.78125 4.215332,9.925781 C4.3306885,10.128906 4.1974487,10.432617 4.140442,10.652344 C4.0717773,10.917969 4.064453,11.285156 3.7542114,11.291992 C3.6258545,11.293945 3.4644775,11.200195 3.3555298,11.139648 C2.5402222,10.688477 2.0446777,9.869141 1.8416748,8.805664 C1.7182007,8.160156 1.7185669,7.40625 1.8416748,6.78125 C1.9605713,6.1777344 2.182129,5.6210938 2.4273071,5.1679688 C2.9362183,4.2285156 3.6815796,3.4785156 4.5890503,2.9423828 C5.286682,2.5292969 6.0737305,2.2402344 7.031128,2.1015625 C7.348938,2.0546875 7.6776123,2.0351562 8.03418,2.0185547 C9.07666,1.9697266 10.024536,2.2060547 10.737976,2.524414 C11.491211,2.8613281 12.092163,3.3095703 12.600647,3.8652344 C13.124084,4.4375 13.505371,5.102539 13.74707,5.9345703 C13.872864,6.366211 13.995544,6.8291016 13.995544,7.3632812 C13.995544,7.899414 13.882263,8.371094 13.80304,8.84375 C13.506897,10.611328 12.666199,12.056641 11.404602,12.879883 C11.098694,13.079102 10.728516,13.262695 10.3081665,13.385742 C9.891235,13.506836 9.41571,13.597656 8.906372,13.561523 C8.411621,13.52832 8.007202,13.393555 7.666748,13.202148 C7.3290405,13.010742 7.045288,12.777344 6.8442383,12.423828 Z"/>
</svg>