<svg xmlns="http://www.w3.org/2000/svg"
 xmlns:xlink="http://www.w3.org/1999/xlink"
 width="19px" height="17px"  viewBox="0 0 19 17">
<path fill-rule="evenodd"  fill="#95e1d3"
 d="M15.499878,4.716797 C15.499878,4.716797 15.499878,7.15625 15.499878,7.15625 C15.499878,7.15625 14.499939,7.15625 14.499939,7.15625 C14.499939,7.15625 14.499939,4.716797 14.499939,4.716797 C14.499939,4.716797 11.999939,4.716797 11.999939,4.716797 C11.999939,4.716797 11.999939,3.71875 11.999939,3.71875 C11.999939,3.71875 14.499939,3.71875 14.499939,3.71875 C14.499939,3.71875 14.499939,1.2792969 14.499939,1.2792969 C14.499939,1.2792969 15.499878,1.2792969 15.499878,1.2792969 C15.499878,1.2792969 15.499878,3.71875 15.499878,3.71875 C15.499878,3.71875 17.999878,3.71875 17.999878,3.71875 C17.999878,3.71875 17.999878,4.716797 17.999878,4.716797 C17.999878,4.716797 15.499878,4.716797 15.499878,4.716797 ZM8.585388,2.2460938 C9.472656,2.7373047 9.992676,3.5341797 9.992676,4.5771484 C9.992676,5.453125 9.451599,6.1435547 8.753845,6.678711 C8.07312,7.201172 7.9438477,7.4208984 7.9438477,7.864258 C7.9438477,8.243164 8.673279,8.888672 9.054565,9.154297 C10.169373,9.927734 10.498962,10.646484 10.498962,11.84668 C10.498962,13.34375 9.054565,15.015625 6.3831787,15.015625 C4.0394287,15.015625 2.0,13.895508 2.0,12.3984375 C2.0,10.87793 3.866211,9.411133 6.2093506,9.411133 C6.4647827,9.411133 6.6987305,9.400391 6.940857,9.400391 C6.620117,9.094727 6.366577,8.713867 6.366577,8.25 C6.366577,7.975586 6.4559937,7.6992188 6.5805054,7.4648438 C6.453125,7.473633 6.323242,7.453125 6.189453,7.453125 C4.2645264,7.453125 2.9750366,6.0615234 2.9750366,4.395508 C2.9750366,2.7646484 4.7558594,1.2636719 6.647888,1.2636719 C7.7025757,1.2636719 10.867676,1.2636719 10.867676,1.2636719 C10.867676,1.2636719 9.92334,2.2460938 9.92334,2.2460938 C9.92334,2.2460938 8.585388,2.2460938 8.585388,2.2460938 ZM6.6557007,9.798828 C5.036133,9.782227 3.5849,10.769531 3.5849,11.955078 C3.5849,13.1640625 4.754822,14.048828 6.3745117,14.048828 C8.651306,14.048828 9.4453125,13.225586 9.4453125,12.016602 C9.4453125,11.871094 9.426758,11.727539 9.393433,11.588867 C9.215393,10.904297 8.5849,10.56543 7.7054443,9.964844 C7.385681,9.863281 7.0336914,9.803711 6.6557007,9.798828 ZM8.475525,4.595703 C8.287476,3.194336 7.2073975,2.0683594 6.120117,2.0371094 C5.033142,2.0058594 4.304138,3.078125 4.4921875,4.4804688 C4.6796265,5.8828125 5.7127686,7.0458984 6.800232,7.0771484 C7.8865967,7.1083984 8.662964,5.998047 8.475525,4.595703 Z"/>
</svg>