<svg xmlns="http://www.w3.org/2000/svg"
 xmlns:xlink="http://www.w3.org/1999/xlink"
 width="19px" height="14px"  viewBox="0 0 19 14">
<path fill-rule="evenodd"  fill="#95e1d3"
 d="M15.537415,1.5224609 C15.537415,1.5224609 10.312378,1.5185547 10.312378,1.5185547 C10.312378,1.5185547 4.8829956,1.5224609 4.8829956,1.5224609 C3.5247803,1.5224609 1.9996338,2.4296875 1.9996338,3.758789 C1.9996338,3.758789 1.9996338,10.376953 1.9996338,10.376953 C1.9996338,11.706055 3.5247803,12.516602 4.8829956,12.516602 C4.8829956,12.516602 10.415161,12.516602 10.415161,12.516602 C10.415161,12.516602 15.537415,12.516602 15.537415,12.516602 C16.895508,12.516602 17.996338,11.706055 17.996338,10.376953 C17.996338,10.376953 17.996338,3.758789 17.996338,3.758789 C17.996338,2.4296875 16.895508,1.5224609 15.537415,1.5224609 ZM8.963928,9.56543 C8.963928,9.56543 8.932373,4.5253906 8.932373,4.5253906 C8.932373,4.5253906 12.43988,7.067383 12.43988,7.067383 C12.43988,7.067383 8.963928,9.56543 8.963928,9.56543 Z"/>
</svg>