<svg xmlns="http://www.w3.org/2000/svg"
 xmlns:xlink="http://www.w3.org/1999/xlink"
 width="20px" height="19px"  viewBox="0 0 20 19">
<path fill-rule="evenodd"  fill="#95e1d3"
 d="M17.837463,7.404297 C17.732666,6.890625 17.575195,6.383789 17.371033,5.9003906 C17.170654,5.4257812 16.92218,4.96875 16.6333,4.5410156 C16.347229,4.118164 16.018677,3.7197266 15.657043,3.3583984 C15.295166,2.9960938 14.896912,2.6679688 14.473389,2.381836 C14.046143,2.0917969 13.588379,1.8447266 13.11438,1.6435547 C12.6311035,1.4394531 12.125122,1.28125 11.61084,1.1777344 C11.083984,1.0693359 10.541992,1.0146484 10.000305,1.0146484 C9.457886,1.0146484 8.915894,1.0693359 8.388672,1.1777344 C7.874817,1.28125 7.3687744,1.4394531 6.885498,1.6435547 C6.411438,1.8447266 5.9537964,2.0917969 5.526123,2.381836 C5.102722,2.6679688 4.704468,2.9960938 4.3425903,3.3583984 C3.980957,3.7197266 3.652649,4.118164 3.366516,4.5410156 C3.0776978,4.96875 2.8292236,5.4257812 2.6288452,5.9003906 C2.4244385,6.383789 2.267334,6.890625 2.1620483,7.404297 C2.0543213,7.9296875 1.9996338,8.472656 1.9996338,9.014648 C1.9996338,9.557617 2.0543213,10.099609 2.1620483,10.625977 C2.267334,11.140625 2.4244385,11.646484 2.6288452,12.128906 C2.8292236,12.603516 3.0776978,13.061523 3.366516,13.488281 C3.652649,13.912109 3.980957,14.310547 4.3425903,14.672852 C4.704468,15.03418 5.102722,15.362305 5.526123,15.6484375 C5.9537964,15.9375 6.411438,16.185547 6.885498,16.385742 C7.3687744,16.59082 7.874817,16.74707 8.388672,16.85254 C8.915894,16.960938 9.457886,17.015625 10.000305,17.015625 C10.541992,17.015625 11.083984,16.960938 11.61084,16.85254 C12.125122,16.74707 12.6311035,16.59082 13.11438,16.385742 C13.588379,16.185547 14.046143,15.9375 14.473389,15.6484375 C14.896912,15.362305 15.295166,15.03418 15.657043,14.672852 C16.018677,14.310547 16.347229,13.912109 16.6333,13.488281 C16.92218,13.061523 17.170654,12.603516 17.371033,12.128906 C17.575195,11.646484 17.732666,11.140625 17.837463,10.625977 C17.945618,10.099609 18.000305,9.557617 18.000305,9.014648 C18.000305,8.472656 17.945618,7.9296875 17.837463,7.404297 ZM16.83014,8.947266 C16.731262,8.925781 14.419006,8.427734 12.07135,8.722656 C12.023315,8.605469 11.97467,8.488281 11.924072,8.370117 C11.78186,8.036133 11.628906,7.705078 11.469971,7.3789062 C14.16803,6.2773438 15.26355,4.6933594 15.276489,4.6748047 C16.234863,5.838867 16.814453,7.3251953 16.83014,8.947266 ZM14.512634,3.8876953 C14.495789,3.9140625 13.522705,5.395508 10.943665,6.361328 C9.775879,4.2158203 8.492676,2.5097656 8.389893,2.375 C8.906372,2.25 9.444946,2.1826172 10.000305,2.1826172 C11.72998,2.1826172 13.308838,2.8271484 14.512634,3.8876953 ZM8.3637085,2.3808594 C8.363342,2.381836 8.362427,2.381836 8.362427,2.381836 C8.362427,2.381836 8.354553,2.3847656 8.34198,2.3867188 C8.348938,2.3847656 8.356506,2.3828125 8.3637085,2.3808594 ZM7.084961,2.8359375 C7.17572,2.9570312 8.439209,4.6708984 9.622009,6.772461 C6.3413086,7.6435547 3.4942627,7.6103516 3.3139038,7.6064453 C3.7578125,5.4902344 5.1793823,3.7353516 7.084961,2.8359375 ZM3.1677246,9.014648 C3.1677246,8.941406 3.1709595,8.870117 3.173462,8.798828 C3.2938843,8.801758 6.669983,8.87793 10.187683,7.826172 C10.383728,8.208008 10.570679,8.597656 10.742004,8.986328 C10.651611,9.011719 10.562256,9.0390625 10.472717,9.068359 C6.7857056,10.259766 4.9155884,13.577148 4.9155884,13.577148 C4.9155884,13.577148 4.9177856,13.579102 4.918091,13.581055 C3.8302612,12.370117 3.1677246,10.769531 3.1677246,9.014648 ZM10.000305,15.847656 C8.346313,15.847656 6.829834,15.259766 5.647888,14.28125 C5.737976,14.354492 5.8007812,14.401367 5.8007812,14.401367 C5.8007812,14.401367 7.1105957,11.544922 11.16272,10.1328125 C11.177612,10.12793 11.19281,10.123047 11.207886,10.119141 C12.169312,12.6171875 12.566345,14.708984 12.66748,15.306641 C11.847839,15.654297 10.946289,15.847656 10.000305,15.847656 ZM13.817871,14.681641 C13.748413,14.268555 13.384338,12.264648 12.487915,9.801758 C14.693665,9.449219 16.604858,10.052734 16.74585,10.099609 C16.441772,12.00293 15.352051,13.646484 13.817871,14.681641 Z"/>
</svg>