<svg xmlns="http://www.w3.org/2000/svg"
 xmlns:xlink="http://www.w3.org/1999/xlink"
 width="13px" height="19px"  viewBox="0 0 13 19">
<path fill-rule="evenodd"  fill="#95e1d3"
 d="M11.008972,16.145508 C10.328735,16.46582 9.712219,16.69336 9.1604,16.823242 C8.608093,16.953125 8.011597,17.017578 7.3705444,17.017578 C6.64209,17.017578 6.2127075,16.925781 5.6533203,16.742188 C5.094055,16.55664 4.616516,16.291992 4.222168,15.951172 C3.8258057,15.608398 3.5529785,15.243164 3.399414,14.859375 C3.2470093,14.473633 3.1706543,13.916016 3.1706543,13.182617 C3.1706543,13.182617 3.1706543,7.5683594 3.1706543,7.5683594 C3.1706543,7.5683594 1.0071411,7.5683594 1.0071411,7.5683594 C1.0071411,7.5683594 1.0071411,5.301758 1.0071411,5.301758 C1.6326904,5.098633 2.3580322,4.8046875 2.8029785,4.423828 C3.2509766,4.0410156 3.6081543,3.5839844 3.8780518,3.0478516 C4.1484375,2.5146484 4.334656,1.8349609 4.435913,1.0078125 C4.435913,1.0078125 6.701416,1.0078125 6.701416,1.0078125 C6.701416,1.0078125 6.701416,4.711914 6.701416,4.711914 C6.701416,4.711914 10.383423,4.711914 10.383423,4.711914 C10.383423,4.711914 10.383423,7.5683594 10.383423,7.5683594 C10.383423,7.5683594 6.701416,7.5683594 6.701416,7.5683594 C6.701416,7.5683594 6.701416,11.673828 6.701416,11.673828 C6.701416,12.602539 6.68927,13.138672 6.7871094,13.400391 C6.8843994,13.663086 7.128235,13.93457 7.394104,14.091797 C7.746704,14.303711 8.148621,14.411133 8.6026,14.411133 C9.409302,14.411133 10.210815,14.146484 11.008972,13.620117 C11.008972,13.620117 11.008972,16.145508 11.008972,16.145508 Z"/>
</svg>