<svg xmlns="http://www.w3.org/2000/svg"
 xmlns:xlink="http://www.w3.org/1999/xlink"
 width="24px" height="15px"  viewBox="0 0 24 15">
<path fill-rule="evenodd"  fill="#cccccc"
 d="M4.1375732,2.5200195 C4.1375732,2.5200195 11.996704,10.380371 11.996704,10.380371 C11.996704,10.380371 19.958496,2.4179688 19.958496,2.4179688 C19.958496,2.4179688 19.958984,2.4194336 19.958984,2.4194336 C20.22876,2.1582031 20.595581,1.9985352 21.0,1.9985352 C21.82837,1.9985352 22.5,2.6689453 22.5,3.4980469 C22.5,3.9023438 22.3396,4.269043 22.079346,4.5390625 C22.079346,4.5390625 22.079834,4.540039 22.079834,4.540039 C22.079834,4.540039 13.079834,13.538574 13.079834,13.538574 C13.079834,13.538574 13.079468,13.538574 13.079468,13.538574 C12.806641,13.821777 12.42395,13.998047 12.0,13.998047 C11.998901,13.998047 11.997681,13.998047 11.996704,13.998047 C11.995605,13.998047 11.994385,13.998047 11.993286,13.998047 C11.569336,13.998047 11.186768,13.821777 10.91394,13.538574 C10.91394,13.538574 10.913574,13.538574 10.913574,13.538574 C10.913574,13.538574 1.9134521,4.540039 1.9134521,4.540039 C1.9134521,4.540039 1.9173584,4.5351562 1.9173584,4.5351562 C1.6590576,4.2651367 1.5,3.9013672 1.5,3.4980469 C1.5,2.6689453 2.1716309,1.9985352 2.999878,1.9985352 C3.4550781,1.9985352 3.8624268,2.2006836 4.1375732,2.5200195 Z"/>
</svg>