<svg xmlns="http://www.w3.org/2000/svg"
 xmlns:xlink="http://www.w3.org/1999/xlink"
 width="24px" height="15px"  viewBox="0 0 24 15">
<path fill-rule="evenodd"  fill="#cccccc"
 d="M4.1375732,13.474609 C4.1375732,13.474609 11.996704,5.6157227 11.996704,5.6157227 C11.996704,5.6157227 19.958496,13.577637 19.958496,13.577637 C19.958496,13.577637 19.958984,13.577637 19.958984,13.577637 C20.22876,13.837402 20.595581,13.998535 21.0,13.998535 C21.82837,13.998535 22.5,13.326172 22.5,12.49707 C22.5,12.092773 22.3396,11.726318 22.079346,11.456299 C22.079346,11.456299 22.079834,11.456299 22.079834,11.456299 C22.079834,11.456299 13.079834,2.4560547 13.079834,2.4560547 C13.079834,2.4560547 13.079468,2.4560547 13.079468,2.4560547 C12.806641,2.1740723 12.42395,1.9975586 12.0,1.9975586 C11.998901,1.9975586 11.997681,1.9975586 11.996704,1.9975586 C11.995605,1.9975586 11.994385,1.9975586 11.993286,1.9975586 C11.569336,1.9975586 11.186768,2.1740723 10.91394,2.4560547 C10.91394,2.4560547 10.913574,2.4560547 10.913574,2.4560547 C10.913574,2.4560547 1.9134521,11.456299 1.9134521,11.456299 C1.9134521,11.456299 1.9173584,11.459961 1.9173584,11.459961 C1.6590576,11.72998 1.5,12.095215 1.5,12.49707 C1.5,13.326172 2.1716309,13.998535 2.999878,13.998535 C3.4550781,13.998535 3.8624268,13.793945 4.1375732,13.474609 Z"/>
</svg>