<svg xmlns="http://www.w3.org/2000/svg"
 xmlns:xlink="http://www.w3.org/1999/xlink"
 width="22px" height="14px"  viewBox="0 0 22 14">
<path fill-rule="evenodd"  fill="#95e1d3"
 d="M20.709808,6.7753906 C20.70935,6.7841797 20.70868,6.7929688 20.7081,6.7998047 C20.707764,6.8046875 20.707306,6.8085938 20.70697,6.8125 C20.706604,6.8183594 20.705475,6.8242188 20.70465,6.830078 C20.703857,6.836914 20.703186,6.84375 20.702026,6.850586 C20.701813,6.852539 20.70169,6.852539 20.70169,6.8535156 C20.677765,7.0078125 20.606934,7.151367 20.498566,7.2626953 C20.294617,7.5097656 20.071808,7.7421875 19.847717,7.9697266 C18.636475,9.200195 17.24649,10.296875 15.72467,11.092773 C14.751892,11.600586 13.713135,12.010742 12.635315,12.208008 C11.450287,12.424805 10.263977,12.4140625 9.085144,12.158203 C7.045471,11.713867 5.197693,10.612305 3.581787,9.294922 C2.8315125,8.683594 2.093811,8.014648 1.4736633,7.2626953 C1.2023315,6.9335938 1.2023315,6.5439453 1.4736633,6.2148438 C1.6774902,5.9677734 1.9004211,5.7353516 2.1246033,5.5078125 C3.3356323,4.2773438 4.7256165,3.180664 6.2475586,2.3857422 C7.2199707,1.8769531 8.258881,1.4658203 9.336792,1.2685547 C10.52182,1.0527344 11.708008,1.0634766 12.886963,1.3193359 C14.926544,1.7626953 16.774292,2.8652344 18.390106,4.182617 C19.140137,4.7929688 19.87793,5.4628906 20.498108,6.2148438 C20.606476,6.326172 20.677307,6.4697266 20.701233,6.6240234 C20.701233,6.625 20.701477,6.6259766 20.70169,6.626953 C20.702728,6.633789 20.703522,6.640625 20.704315,6.647461 C20.705017,6.6533203 20.706146,6.6591797 20.706604,6.665039 C20.70697,6.6689453 20.707306,6.6728516 20.707764,6.6777344 C20.708313,6.685547 20.709015,6.6933594 20.70935,6.7021484 C20.70993,6.7148438 20.710724,6.7265625 20.710724,6.739258 C20.710724,6.7509766 20.710388,6.763672 20.709808,6.7753906 ZM10.9904785,2.9423828 C8.977325,2.9423828 7.345398,4.5742188 7.345398,6.586914 C7.345398,8.599609 8.977325,10.231445 10.9904785,10.231445 C13.003479,10.231445 14.635529,8.599609 14.635529,6.586914 C14.635529,4.5742188 13.003479,2.9423828 10.9904785,2.9423828 ZM10.9904785,8.40918 C9.983948,8.40918 9.167999,7.59375 9.167999,6.586914 C9.167999,5.580078 9.983948,4.7646484 10.9904785,4.7646484 C11.996979,4.7646484 12.812927,5.580078 12.812927,6.586914 C12.812927,7.59375 11.996979,8.40918 10.9904785,8.40918 Z"/>
</svg>