<svg xmlns="http://www.w3.org/2000/svg"
 xmlns:xlink="http://www.w3.org/1999/xlink"
 width="19px" height="17px"  viewBox="0 0 19 17">
<path fill-rule="evenodd"  fill="#95e1d3"
 d="M10.416321,13.358398 C9.842712,13.358398 9.282318,13.192383 8.7404175,13.114258 C6.548767,15.885742 3.0925293,15.339844 3.0925293,15.339844 C5.5336914,14.185547 5.4844666,12.271484 5.050415,12.015625 C3.1340942,10.890625 1.981781,9.175781 1.981781,7.2558594 C1.981781,3.8642578 5.7087708,1.1152344 10.416321,1.1152344 C15.123962,1.1152344 17.993225,3.8642578 17.993225,7.2558594 C17.993225,10.647461 15.123962,13.358398 10.416321,13.358398 ZM6.2421875,5.875 C5.4137573,5.875 4.742218,6.5458984 4.742218,7.375 C4.742218,8.203125 5.4137573,8.875 6.2421875,8.875 C7.0706177,8.875 7.742157,8.203125 7.742157,7.375 C7.742157,6.5458984 7.0706177,5.875 6.2421875,5.875 ZM9.9921875,5.875 C9.163757,5.875 8.492096,6.5458984 8.492096,7.375 C8.492096,8.203125 9.163757,8.875 9.9921875,8.875 C10.820618,8.875 11.492157,8.203125 11.492157,7.375 C11.492157,6.5458984 10.820618,5.875 9.9921875,5.875 ZM13.7421875,5.875 C12.913757,5.875 12.242096,6.5458984 12.242096,7.375 C12.242096,8.203125 12.913757,8.875 13.7421875,8.875 C14.570496,8.875 15.242157,8.203125 15.242157,7.375 C15.242157,6.5458984 14.570496,5.875 13.7421875,5.875 Z"/>
</svg>