<svg xmlns="http://www.w3.org/2000/svg"
 xmlns:xlink="http://www.w3.org/1999/xlink"
 width="15px" height="24px"  viewBox="0 0 15 24">
<path fill-rule="evenodd"  fill="#cccccc"
 d="M12.477173,19.859863 C12.477173,19.859863 4.6188354,12.001465 4.6188354,12.001465 C4.6188354,12.001465 12.580841,4.039551 12.580841,4.039551 C12.580841,4.039551 12.57959,4.039551 12.57959,4.039551 C12.839478,3.769043 13.000366,3.402832 13.000366,2.9975586 C13.000366,2.1689453 12.329285,1.4980469 11.500732,1.4980469 C11.09552,1.4980469 10.729523,1.6577148 10.458862,1.9189453 C10.458862,1.9189453 10.458862,1.9174805 10.458862,1.9174805 C10.458862,1.9174805 1.4585571,10.917969 1.4585571,10.917969 C1.4585571,10.917969 1.4598083,10.918945 1.4598083,10.918945 C1.1772461,11.190918 1.0007935,11.57373 1.0007935,11.998047 C1.0007935,11.999023 1.0007935,12.000488 1.0007935,12.001465 C1.0007935,12.00293 1.0007935,12.003906 1.0007935,12.004883 C1.0007935,12.428223 1.1772461,12.811035 1.4598083,13.083984 C1.4598083,13.083984 1.4585571,13.083984 1.4585571,13.083984 C1.4585571,13.083984 10.458862,22.084473 10.458862,22.084473 C10.458862,22.084473 10.462433,22.080566 10.462433,22.080566 C10.731934,22.339355 11.097809,22.498047 11.500732,22.498047 C12.329285,22.498047 13.000366,21.82666 13.000366,20.998047 C13.000366,20.542969 12.797821,20.135254 12.477173,19.859863 Z"/>
</svg>