<svg xmlns="http://www.w3.org/2000/svg"
 xmlns:xlink="http://www.w3.org/1999/xlink"
 width="15px" height="24px"  viewBox="0 0 15 24">
<path fill-rule="evenodd"  fill="#cccccc"
 d="M2.522705,19.859863 C2.522705,19.859863 10.3811035,12.001465 10.3811035,12.001465 C10.3811035,12.001465 2.4190674,4.039551 2.4190674,4.039551 C2.4190674,4.039551 2.420166,4.039551 2.420166,4.039551 C2.1604004,3.769043 1.9993896,3.402832 1.9993896,2.9975586 C1.9993896,2.1689453 2.6706543,1.4980469 3.4990234,1.4980469 C3.904419,1.4980469 4.2703857,1.6577148 4.5410156,1.9189453 C4.5410156,1.9189453 4.5410156,1.9174805 4.5410156,1.9174805 C4.5410156,1.9174805 13.54126,10.917969 13.54126,10.917969 C13.54126,10.917969 13.540039,10.918945 13.540039,10.918945 C13.822632,11.190918 13.999023,11.57373 13.999023,11.998047 C13.999023,11.999023 13.999023,12.000488 13.999023,12.001465 C13.999023,12.00293 13.999023,12.003906 13.999023,12.004883 C13.999023,12.428223 13.822632,12.811035 13.540039,13.083984 C13.540039,13.083984 13.54126,13.083984 13.54126,13.083984 C13.54126,13.083984 4.5410156,22.084473 4.5410156,22.084473 C4.5410156,22.084473 4.5373535,22.080566 4.5373535,22.080566 C4.2679443,22.339355 3.9019775,22.498047 3.4990234,22.498047 C2.6706543,22.498047 1.9993896,21.82666 1.9993896,20.998047 C1.9993896,20.542969 2.2021484,20.135254 2.522705,19.859863 Z"/>
</svg>