<svg xmlns="http://www.w3.org/2000/svg"
 xmlns:xlink="http://www.w3.org/1999/xlink"
 width="34px" height="33px"  viewBox="0 0 34 33">
<path fill-rule="evenodd"  fill="#95e1d3"
 d="M31.739624,10.50293 C30.156342,6.8066406 27.193115,3.8432617 23.497375,2.2600098 C24.496765,1.4733887 25.7547,1.0 27.12561,1.0 C30.369873,1.0 32.99997,3.6298828 32.99997,6.8740234 C32.99997,8.245117 32.52664,9.502686 31.739624,10.50293 ZM31.5,16.999756 C31.5,20.85205 29.987762,24.343018 27.537476,26.939941 C27.537476,26.939941 29.565613,28.967773 29.565613,28.967773 C29.833954,29.236572 30.0,29.607422 30.0,30.016846 C30.0,30.835693 29.335907,31.499756 28.516846,31.499756 C28.10727,31.499756 27.73648,31.333984 27.46814,31.065186 C27.46814,31.065186 25.289612,28.886719 25.289612,28.886719 C22.939117,30.529297 20.084839,31.499756 17.0,31.499756 C13.921173,31.499756 11.071838,30.533447 8.7239685,28.896729 C8.7239685,28.896729 6.560669,31.060547 6.560669,31.060547 C6.2891235,31.331787 5.914215,31.499756 5.499939,31.499756 C4.6716003,31.499756 3.999939,30.828125 3.999939,29.999512 C3.999939,29.585938 4.1678467,29.21045 4.4393005,28.939209 C4.4393005,28.939209 6.451172,26.92749 6.451172,26.92749 C4.0077515,24.331787 2.4999695,20.845459 2.4999695,16.999756 C2.4999695,8.991943 8.991882,2.4997559 17.0,2.4997559 C25.008118,2.4997559 31.5,8.991943 31.5,16.999756 ZM17.0,5.4995117 C10.648621,5.4995117 5.499939,10.648193 5.499939,16.999756 C5.499939,23.351318 10.648621,28.499756 17.0,28.499756 C23.351227,28.499756 28.499939,23.351318 28.499939,16.999756 C28.499939,10.648193 23.351227,5.4995117 17.0,5.4995117 ZM23.0,18.5 C23.0,18.5 17.0,18.5 17.0,18.5 C16.17154,18.5 15.5,17.828125 15.5,16.999756 C15.5,16.999756 15.5,8.999512 15.5,8.999512 C15.5,8.171631 16.17154,7.5 17.0,7.5 C17.82843,7.5 18.49997,8.171631 18.49997,8.999512 C18.49997,8.999512 18.49997,15.499512 18.49997,15.499512 C18.49997,15.499512 23.0,15.499512 23.0,15.499512 C23.82843,15.499512 24.5,16.171143 24.5,16.999756 C24.5,17.828125 23.82843,18.5 23.0,18.5 ZM2.2872314,10.705566 C1.4833984,9.685059 1.0,8.399902 1.0,6.999756 C1.0,3.685791 3.6862793,1.0 6.9999084,1.0 C8.400085,1.0 9.685028,1.4833984 10.705841,2.2868652 C6.930908,3.9040527 3.9042969,6.930664 2.2872314,10.705566 Z"/>
</svg>