<svg xmlns="http://www.w3.org/2000/svg"
 xmlns:xlink="http://www.w3.org/1999/xlink"
 width="35px" height="35px"  viewBox="0 0 35 35">
<path fill-rule="evenodd"  fill="#95e1d3"
 d="M31.499939,33.999756 C31.499939,33.999756 2.499939,33.999756 2.499939,33.999756 C1.6716309,33.999756 1.000061,33.328125 1.000061,32.49951 C1.000061,32.49951 1.000061,3.4995117 1.000061,3.4995117 C1.000061,2.6716309 1.6716309,2.0 2.499939,2.0 C2.499939,2.0 31.499939,2.0 31.499939,2.0 C32.32837,2.0 33.0,2.6716309 33.0,3.4995117 C33.0,3.4995117 33.0,32.49951 33.0,32.49951 C33.0,33.328125 32.32837,33.999756 31.499939,33.999756 ZM29.999939,4.999756 C29.999939,4.999756 4.0,4.999756 4.0,4.999756 C4.0,4.999756 4.0,31.0 4.0,31.0 C4.0,31.0 29.999939,31.0 29.999939,31.0 C29.999939,31.0 29.999939,4.999756 29.999939,4.999756 ZM6.215332,18.238525 C6.215332,18.238525 6.2146606,18.237305 6.2146606,18.237305 C6.2146606,18.237305 10.2146,15.737549 10.2146,15.737549 C10.2146,15.737549 10.215393,15.73877 10.215393,15.73877 C10.443726,15.598145 10.712341,15.51709 10.999878,15.51709 C11.311279,15.51709 11.600403,15.611816 11.840149,15.774414 C11.840149,15.774414 11.845947,15.765625 11.845947,15.765625 C11.845947,15.765625 18.476685,20.185791 18.476685,20.185791 C18.476685,20.185791 26.11493,14.794678 26.11493,14.794678 C26.363037,14.612793 26.668945,14.505615 27.0,14.505615 C27.828308,14.505615 28.5,15.176758 28.5,16.005127 C28.5,16.505371 28.254944,16.948242 27.878479,17.220459 C27.878479,17.220459 27.878906,17.221191 27.878906,17.221191 C27.878906,17.221191 19.378906,23.221436 19.378906,23.221436 C19.378906,23.221436 19.378479,23.220947 19.378479,23.220947 C19.13153,23.399658 18.828125,23.505371 18.5,23.505371 C18.179382,23.505371 17.882385,23.404541 17.63861,23.23291 C17.63861,23.23291 10.982422,18.79541 10.982422,18.79541 C10.982422,18.79541 7.8468018,20.755127 7.8468018,20.755127 C7.605835,20.920166 7.314209,21.017334 7.0,21.017334 C6.171509,21.017334 5.5,20.345703 5.5,19.51709 C5.5,18.976562 5.786316,18.502686 6.215332,18.238525 Z"/>
</svg>