<svg xmlns="http://www.w3.org/2000/svg"
 xmlns:xlink="http://www.w3.org/1999/xlink"
 width="34px" height="30px"  viewBox="0 0 34 30">
<path fill-rule="evenodd"  fill="#95e1d3"
 d="M31.0,23.999756 C31.0,23.999756 23.5,23.999756 23.5,23.999756 C23.5,23.999756 21.5,23.999756 21.5,23.999756 C21.5,23.999756 21.5,26.499512 21.5,26.499512 C21.5,26.499512 23.5,28.499756 23.5,28.499756 C23.5,28.499756 23.5,29.0 23.5,29.0 C23.5,29.0 10.5,29.0 10.5,29.0 C10.5,29.0 10.5,28.499756 10.5,28.499756 C10.5,28.499756 12.5,26.499512 12.5,26.499512 C12.5,26.499512 12.5,23.999756 12.5,23.999756 C12.5,23.999756 10.5,23.999756 10.5,23.999756 C10.5,23.999756 3.0,23.999756 3.0,23.999756 C2.1716309,23.999756 1.5,23.32788 1.5,22.499512 C1.5,22.499512 1.5,2.4997559 1.5,2.4997559 C1.5,1.6711426 2.1716309,1.0 3.0,1.0 C3.0,1.0 31.0,1.0 31.0,1.0 C31.828491,1.0 32.5,1.6711426 32.5,2.4997559 C32.5,2.4997559 32.5,22.499512 32.5,22.499512 C32.5,23.32788 31.828491,23.999756 31.0,23.999756 ZM30.5,2.9997559 C30.5,2.9997559 3.5,2.9997559 3.5,2.9997559 C3.5,2.9997559 3.5,19.999756 3.5,19.999756 C3.5,19.999756 30.5,19.999756 30.5,19.999756 C30.5,19.999756 30.5,2.9997559 30.5,2.9997559 ZM14.0,9.999756 C14.414185,9.999756 14.789185,10.167969 15.060547,10.438965 C15.060547,10.438965 15.060547,10.438965 15.060547,10.438965 C15.060547,10.438965 15.999878,11.378418 15.999878,11.378418 C15.999878,11.378418 18.939331,8.439209 18.939331,8.439209 C18.939331,8.439209 18.939331,8.439209 18.939331,8.439209 C19.210815,8.16748 19.585693,8.0 20.0,8.0 C20.82837,8.0 21.5,8.671143 21.5,9.499756 C21.5,9.913818 21.332031,10.288818 21.060669,10.560547 C21.060669,10.560547 21.060669,10.560547 21.060669,10.560547 C21.060669,10.560547 17.060669,14.560791 17.060669,14.560791 C17.060669,14.560791 17.060669,14.560791 17.060669,14.560791 C16.789185,14.832031 16.414185,15.0 15.999878,15.0 C15.585815,15.0 15.210693,14.832031 14.939331,14.560791 C14.939331,14.560791 14.939331,14.560791 14.939331,14.560791 C14.939331,14.560791 12.939331,12.560303 12.939331,12.560303 C12.939331,12.560303 12.939331,12.560303 12.939331,12.560303 C12.667847,12.2890625 12.5,11.913574 12.5,11.5 C12.5,10.671631 13.171631,9.999756 14.0,9.999756 Z"/>
</svg>