<svg xmlns="http://www.w3.org/2000/svg"
 xmlns:xlink="http://www.w3.org/1999/xlink"
 width="35px" height="35px"  viewBox="0 0 35 35">
<path fill-rule="evenodd"  fill="#95e1d3"
 d="M33.064514,26.889404 C33.064514,26.889404 18.593689,32.877197 18.593689,32.877197 C18.411621,32.95581 18.210876,33.0 17.99997,33.0 C17.789062,33.0 17.588318,32.95581 17.40625,32.877197 C17.40625,32.877197 2.9353027,26.889404 2.9353027,26.889404 C2.3867798,26.666504 2.0,26.128174 2.0,25.5 C2.0,25.5 2.0,2.4997559 2.0,2.4997559 C2.0,1.6711426 2.6715088,1.0 3.4999695,1.0 C3.7032166,1.0 3.8967285,1.0405273 4.0734253,1.1140137 C4.0734253,1.1140137 4.0735474,1.1140137 4.0735474,1.1140137 C4.0735474,1.1140137 4.0759277,1.1152344 4.0759277,1.1152344 C4.080414,1.1162109 4.0848694,1.1186523 4.089325,1.1206055 C4.089325,1.1206055 17.99997,6.876465 17.99997,6.876465 C17.99997,6.876465 31.910614,1.1206055 31.910614,1.1206055 C31.914948,1.1186523 31.919525,1.1162109 31.924011,1.1152344 C31.924011,1.1152344 31.926514,1.1140137 31.926514,1.1140137 C31.926514,1.1140137 31.926514,1.1140137 31.926514,1.1140137 C32.10321,1.0405273 32.296722,1.0 32.49997,1.0 C33.32843,1.0 33.99994,1.6711426 33.99994,2.4997559 C33.99994,2.4997559 33.99994,25.5 33.99994,25.5 C33.99994,26.128174 33.61316,26.666504 33.064514,26.889404 ZM16.5,9.502686 C16.5,9.502686 4.999939,4.7438965 4.999939,4.7438965 C4.999939,4.7438965 4.999939,24.496826 4.999939,24.496826 C4.999939,24.496826 16.5,29.255615 16.5,29.255615 C16.5,29.255615 16.5,9.502686 16.5,9.502686 ZM31.0,4.7438965 C31.0,4.7438965 19.499939,9.502686 19.499939,9.502686 C19.499939,9.502686 19.499939,29.255615 19.499939,29.255615 C19.499939,29.255615 31.0,24.496826 31.0,24.496826 C31.0,24.496826 31.0,4.7438965 31.0,4.7438965 ZM21.879272,11.634277 C21.879272,11.634277 27.379333,9.134277 27.379333,9.134277 C27.379333,9.134277 27.379333,9.134277 27.379333,9.134277 C27.568481,9.047852 27.778503,8.999512 27.999939,8.999512 C28.82837,8.999512 29.50003,9.671387 29.50003,10.5 C29.50003,11.106689 29.139313,11.629395 28.620667,11.8654785 C28.620667,11.8654785 28.620667,11.8654785 28.620667,11.8654785 C28.620667,11.8654785 23.120636,14.365234 23.120636,14.365234 C23.120636,14.365234 23.120636,14.365234 23.120636,14.365234 C22.931458,14.45166 22.721466,14.5 22.5,14.5 C21.67157,14.5 20.999939,13.828125 20.999939,12.999756 C20.999939,12.392822 21.360657,11.870117 21.879272,11.634277 ZM21.879272,17.134521 C21.879272,17.134521 21.879272,17.134521 21.879272,17.134521 C21.879272,17.134521 27.379333,14.634033 27.379333,14.634033 C27.379333,14.634033 27.379333,14.634033 27.379333,14.634033 C27.568481,14.54834 27.778503,14.5 27.999939,14.5 C28.82837,14.5 29.50003,15.171143 29.50003,15.999512 C29.50003,16.606934 29.139313,17.12915 28.620667,17.365234 C28.620667,17.365234 23.120636,19.865479 23.120636,19.865479 C23.120636,19.865479 23.120636,19.86499 23.120636,19.86499 C22.931458,19.951416 22.721466,19.999756 22.5,19.999756 C21.67157,19.999756 20.999939,19.32788 20.999939,18.5 C20.999939,17.892578 21.360657,17.370605 21.879272,17.134521 ZM21.879272,22.634277 C21.879272,22.634277 21.879272,22.634277 21.879272,22.634277 C21.879272,22.634277 27.379333,20.134277 27.379333,20.134277 C27.379333,20.134277 27.379333,20.134277 27.379333,20.134277 C27.568481,20.047852 27.778503,19.999756 27.999939,19.999756 C28.82837,19.999756 29.50003,20.671387 29.50003,21.5 C29.50003,22.10669 29.139313,22.629395 28.620667,22.865479 C28.620667,22.865479 28.620667,22.865479 28.620667,22.865479 C28.620667,22.865479 23.120636,25.365234 23.120636,25.365234 C23.120636,25.365234 23.120636,25.365234 23.120636,25.365234 C22.931458,25.45166 22.721466,25.5 22.5,25.5 C21.67157,25.5 20.999939,24.828125 20.999939,23.999756 C20.999939,23.393066 21.360657,22.870117 21.879272,22.634277 ZM8.0,8.999512 C8.221436,8.999512 8.4314575,9.047852 8.620605,9.134277 C8.620605,9.134277 8.620605,9.134277 8.620605,9.134277 C8.620605,9.134277 14.1206665,11.634277 14.1206665,11.634277 C14.1206665,11.634277 14.1206665,11.634277 14.1206665,11.634277 C14.639282,11.870117 15.0,12.392822 15.0,12.999756 C15.0,13.828125 14.328369,14.5 13.499939,14.5 C13.278473,14.5 13.068481,14.45166 12.879303,14.365234 C12.879303,14.365234 12.879303,14.365234 12.879303,14.365234 C12.879303,14.365234 7.3792725,11.8654785 7.3792725,11.8654785 C7.3792725,11.8654785 7.3792725,11.8654785 7.3792725,11.8654785 C6.860626,11.629395 6.4999084,11.106689 6.4999084,10.5 C6.4999084,9.671387 7.17157,8.999512 8.0,8.999512 ZM8.0,14.5 C8.221436,14.5 8.4314575,14.54834 8.620605,14.634033 C8.620605,14.634033 8.620605,14.634033 8.620605,14.634033 C8.620605,14.634033 14.1206665,17.134521 14.1206665,17.134521 C14.1206665,17.134521 14.1206665,17.134521 14.1206665,17.134521 C14.639282,17.370605 15.0,17.892578 15.0,18.5 C15.0,19.32788 14.328369,19.999756 13.499939,19.999756 C13.278473,19.999756 13.068481,19.951416 12.879303,19.86499 C12.879303,19.86499 12.879303,19.865479 12.879303,19.865479 C12.879303,19.865479 7.3792725,17.365234 7.3792725,17.365234 C7.3792725,17.365234 7.3792725,17.365234 7.3792725,17.365234 C6.860626,17.12915 6.4999084,16.606934 6.4999084,15.999512 C6.4999084,15.171143 7.17157,14.5 8.0,14.5 ZM8.0,19.999756 C8.221436,19.999756 8.4314575,20.047852 8.620605,20.134277 C8.620605,20.134277 8.620605,20.134277 8.620605,20.134277 C8.620605,20.134277 14.1206665,22.634277 14.1206665,22.634277 C14.1206665,22.634277 14.1206665,22.634277 14.1206665,22.634277 C14.639282,22.870117 15.0,23.393066 15.0,23.999756 C15.0,24.828125 14.328369,25.5 13.499939,25.5 C13.278473,25.5 13.068481,25.45166 12.879303,25.365234 C12.879303,25.365234 12.879303,25.365234 12.879303,25.365234 C12.879303,25.365234 7.3792725,22.865479 7.3792725,22.865479 C7.3792725,22.865479 7.3792725,22.865479 7.3792725,22.865479 C6.860626,22.629395 6.4999084,22.10669 6.4999084,21.5 C6.4999084,20.671387 7.17157,19.999756 8.0,19.999756 Z"/>
</svg>