<svg xmlns="http://www.w3.org/2000/svg"
 xmlns:xlink="http://www.w3.org/1999/xlink"
 width="35px" height="33px"  viewBox="0 0 35 33">
<path fill-rule="evenodd"  fill="#95e1d3"
 d="M33.99994,17.499756 C33.99994,18.32837 33.32837,18.999512 32.49994,18.999512 C32.104797,18.999512 31.748047,18.843994 31.480164,18.594238 C31.480164,18.594238 31.476501,18.597656 31.476501,18.597656 C31.476501,18.597656 18.038147,5.159424 18.038147,5.159424 C18.038147,5.159424 18.038269,5.1586914 18.038269,5.1586914 C18.038269,5.1586914 17.999939,5.1223145 17.999939,5.1223145 C17.999939,5.1223145 17.999939,5.121826 17.999939,5.121826 C17.999939,5.121826 4.553833,18.568604 4.553833,18.568604 C4.553833,18.568604 4.5531616,18.567871 4.5531616,18.567871 C4.2822266,18.83496 3.9104614,18.999512 3.500061,18.999512 C2.6715088,18.999512 1.999939,18.32837 1.999939,17.499756 C1.999939,17.074951 2.177002,16.69165 2.4608154,16.418701 C2.4608154,16.418701 16.918823,1.9602051 16.918823,1.9602051 C17.191772,1.6765137 17.575012,1.4995117 17.999939,1.4995117 C17.999939,1.4995117 17.999939,1.4995117 17.999939,1.4995117 C17.999939,1.4995117 17.999939,1.4995117 17.999939,1.4995117 C18.000183,1.4995117 18.000305,1.4995117 18.000488,1.4995117 C18.0271,1.4995117 18.053406,1.5002441 18.07959,1.5019531 C18.08374,1.5019531 18.087952,1.5024414 18.092041,1.5024414 C18.114746,1.5043945 18.137146,1.5061035 18.159607,1.5085449 C18.16095,1.5085449 18.162476,1.5085449 18.16394,1.5090332 C18.531067,1.5490723 18.858154,1.7211914 19.096985,1.9770508 C19.096985,1.9770508 19.097778,1.9763184 19.097778,1.9763184 C19.097778,1.9763184 24.999939,7.878418 24.999939,7.878418 C24.999939,7.878418 24.999939,6.499756 24.999939,6.499756 C24.999939,5.6713867 25.671509,4.9995117 26.499939,4.9995117 C27.32837,4.9995117 27.999878,5.6713867 27.999878,6.499756 C27.999878,6.499756 27.999878,10.878418 27.999878,10.878418 C27.999878,10.878418 33.59778,16.476318 33.59778,16.476318 C33.59778,16.476318 33.59436,16.47998 33.59436,16.47998 C33.844055,16.747559 33.99994,17.104736 33.99994,17.499756 ZM31.0,19.999756 C31.0,19.999756 31.0,24.499756 31.0,24.499756 C31.0,24.499756 31.0,26.499512 31.0,26.499512 C31.0,26.499512 31.0,30.499512 31.0,30.499512 C31.0,31.328125 30.32843,31.999756 29.5,31.999756 C29.5,31.999756 26.499939,31.999756 26.499939,31.999756 C26.499939,31.999756 26.499939,19.999756 26.499939,19.999756 C26.499939,19.999756 20.5,19.999756 20.5,19.999756 C20.5,19.999756 20.5,31.999756 20.5,31.999756 C20.5,31.999756 6.5,31.999756 6.5,31.999756 C5.67157,31.999756 5.0,31.328125 5.0,30.499512 C5.0,30.499512 5.0,26.499512 5.0,26.499512 C5.0,26.499512 5.0,24.499756 5.0,24.499756 C5.0,24.499756 5.0,19.999756 5.0,19.999756 C5.0,19.999756 17.999939,7.0 17.999939,7.0 C17.999939,7.0 31.0,19.999756 31.0,19.999756 ZM15.5,19.999756 C15.5,19.999756 9.499939,19.999756 9.499939,19.999756 C9.499939,19.999756 9.499939,26.0 9.499939,26.0 C9.499939,26.0 15.5,26.0 15.5,26.0 C15.5,26.0 15.5,19.999756 15.5,19.999756 Z"/>
</svg>