<svg xmlns="http://www.w3.org/2000/svg"
 xmlns:xlink="http://www.w3.org/1999/xlink"
 width="36px" height="35px"  viewBox="0 0 36 35">
<path fill-rule="evenodd"  fill="#95e1d3"
 d="M32.5,33.0 C32.5,33.0 3.5,33.0 3.5,33.0 C2.6715088,33.0 1.9998779,32.32837 1.9998779,31.499756 C1.9998779,31.499756 1.9998779,2.4997559 1.9998779,2.4997559 C1.9998779,1.6711426 2.6715088,1.0 3.5,1.0 C3.5,1.0 32.5,1.0 32.5,1.0 C33.32849,1.0 34.0,1.6711426 34.0,2.4997559 C34.0,2.4997559 34.0,31.499756 34.0,31.499756 C34.0,32.32837 33.32849,33.0 32.5,33.0 ZM31.0,4.0 C31.0,4.0 5.0,4.0 5.0,4.0 C5.0,4.0 5.0,29.999512 5.0,29.999512 C5.0,29.999512 31.0,29.999512 31.0,29.999512 C31.0,29.999512 31.0,4.0 31.0,4.0 ZM8.5,5.499756 C8.5,5.499756 13.999878,5.499756 13.999878,5.499756 C13.999878,5.499756 14.0,5.499756 14.0,5.499756 C14.828369,5.499756 15.5,6.1713867 15.5,7.0 C15.5,7.828369 14.828369,8.499512 14.0,8.499512 C14.0,8.499512 14.0,8.499512 14.0,8.499512 C14.0,8.499512 9.5,8.499512 9.5,8.499512 C9.5,8.499512 9.5,12.999756 9.5,12.999756 C9.5,12.999756 9.5,12.999756 9.5,12.999756 C9.5,13.828125 8.828369,14.5 8.0,14.5 C7.171631,14.5 6.5,13.828125 6.5,12.999756 C6.5,12.999756 6.5,12.999756 6.5,12.999756 C6.5,12.999756 6.5,7.5 6.5,7.5 C6.5,7.5 6.5,7.5 6.5,7.5 C6.5,7.5 6.5,5.499756 6.5,5.499756 C6.5,5.499756 8.5,5.499756 8.5,5.499756 C8.5,5.499756 8.5,5.499756 8.5,5.499756 ZM6.5,20.999756 C6.5,20.999756 6.5,20.999756 6.5,20.999756 C6.5,20.171387 7.171631,19.499512 8.0,19.499512 C8.828369,19.499512 9.5,20.171387 9.5,20.999756 C9.5,20.999756 9.5,20.999756 9.5,20.999756 C9.5,20.999756 9.5,25.499268 9.5,25.499268 C9.5,25.499268 14.0,25.499268 14.0,25.499268 C14.0,25.499268 14.0,25.5 14.0,25.5 C14.828369,25.5 15.5,26.171143 15.5,26.999756 C15.5,27.828125 14.828369,28.5 14.0,28.5 C14.0,28.5 13.999878,28.5 13.999878,28.5 C13.999878,28.5 8.5,28.5 8.5,28.5 C8.5,28.5 8.5,28.5 8.5,28.5 C8.5,28.5 6.5,28.5 6.5,28.5 C6.5,28.5 6.5,26.499512 6.5,26.499512 C6.5,26.499512 6.5,26.499512 6.5,26.499512 C6.5,26.499512 6.5,20.999756 6.5,20.999756 ZM22.0,5.499756 C22.0,5.499756 22.000122,5.499756 22.000122,5.499756 C22.000122,5.499756 27.5,5.499756 27.5,5.499756 C27.5,5.499756 27.5,5.499756 27.5,5.499756 C27.5,5.499756 29.5,5.499756 29.5,5.499756 C29.5,5.499756 29.5,7.5 29.5,7.5 C29.5,7.5 29.5,7.5 29.5,7.5 C29.5,7.5 29.5,12.999756 29.5,12.999756 C29.5,12.999756 29.5,12.999756 29.5,12.999756 C29.5,13.828125 28.82837,14.5 28.0,14.5 C27.171509,14.5 26.499878,13.828125 26.499878,12.999756 C26.499878,12.999756 26.499878,12.999756 26.499878,12.999756 C26.499878,12.999756 26.499878,8.499512 26.499878,8.499512 C26.499878,8.499512 22.0,8.499512 22.0,8.499512 C22.0,8.499512 22.0,8.499512 22.0,8.499512 C21.171509,8.499512 20.5,7.828369 20.5,7.0 C20.5,6.1713867 21.171509,5.499756 22.0,5.499756 ZM22.0,25.5 C22.0,25.5 22.0,25.499268 22.0,25.499268 C22.0,25.499268 26.499878,25.499268 26.499878,25.499268 C26.499878,25.499268 26.499878,20.999756 26.499878,20.999756 C26.499878,20.999756 26.499878,20.999756 26.499878,20.999756 C26.499878,20.171387 27.171509,19.499512 28.0,19.499512 C28.82837,19.499512 29.5,20.171387 29.5,20.999756 C29.5,20.999756 29.5,20.999756 29.5,20.999756 C29.5,20.999756 29.5,26.499512 29.5,26.499512 C29.5,26.499512 29.5,26.499512 29.5,26.499512 C29.5,26.499512 29.5,28.5 29.5,28.5 C29.5,28.5 27.5,28.5 27.5,28.5 C27.5,28.5 27.5,28.5 27.5,28.5 C27.5,28.5 22.000122,28.5 22.000122,28.5 C22.000122,28.5 22.0,28.5 22.0,28.5 C21.171509,28.5 20.5,27.828125 20.5,26.999756 C20.5,26.171143 21.171509,25.5 22.0,25.5 Z"/>
</svg>